<?xml version="1.0" encoding="UTF-8"?>
<svg version="1.1" xmlns="http://www.w3.org/2000/svg" width="500" height="500">
<path d="M0 0 C0.77416964 -0.00611336 1.54833928 -0.01222672 2.3459686 -0.01852533 C4.9497382 -0.03417188 7.55258252 -0.02124076 10.15635681 -0.00850582 C12.03802314 -0.013829 13.91968522 -0.02089336 15.80133915 -0.02955288 C20.97959789 -0.04823726 26.15757177 -0.0418553 31.33584261 -0.03139985 C36.91738687 -0.02442431 42.49887164 -0.04039319 48.08039856 -0.05339718 C59.01759866 -0.07506964 69.95469484 -0.07490203 80.89190936 -0.06677163 C89.77858152 -0.060479 98.66522331 -0.0616019 107.55189514 -0.06804371 C109.44706063 -0.06939619 109.44706063 -0.06939619 111.3805123 -0.070776 C113.94694798 -0.07262714 116.51338366 -0.0744897 119.07981932 -0.07636356 C136.31783572 -0.0882388 153.55583754 -0.09263594 170.79385376 -0.08142853 C171.46808187 -0.08099056 172.14230997 -0.08055259 172.83696923 -0.08010134 C178.31241216 -0.0764944 183.78785493 -0.07265969 189.26329769 -0.06881041 C210.62572871 -0.05396028 231.98803191 -0.06274518 253.35044861 -0.09076595 C277.34401424 -0.12217768 301.33749416 -0.13710123 325.33108807 -0.12696594 C327.88823127 -0.12594336 330.44537448 -0.12494875 333.0025177 -0.12398243 C334.26077348 -0.12350604 335.51902927 -0.12302965 336.81541401 -0.12253882 C345.69431407 -0.12037149 354.57315475 -0.1301957 363.45204163 -0.14475346 C374.2683181 -0.1622399 385.08442079 -0.16221243 395.90069032 -0.1394018 C401.42232753 -0.12822638 406.94365814 -0.12517173 412.46528244 -0.14370251 C417.51596998 -0.16043512 422.56608178 -0.15425456 427.61673152 -0.12948572 C429.44774653 -0.12457823 431.27880734 -0.12818343 433.10978425 -0.14097316 C435.59202863 -0.15706628 438.07226063 -0.14259415 440.55441284 -0.12025452 C441.62993867 -0.13824203 441.62993867 -0.13824203 442.72719228 -0.15659294 C446.61142695 -0.08482306 448.17209786 0.42011839 451.22090483 2.91580248 C453.28102234 5.51096484 453.90202403 6.42872013 453.89866638 9.64911747 C453.90987518 10.44114063 453.92108398 11.2331638 453.93263245 12.04918766 C453.9193692 12.90389652 453.90610596 13.75860538 453.8924408 14.63921452 C453.89798981 15.55035511 453.90353882 16.4614957 453.90925598 17.40024662 C453.92104826 20.40614066 453.89678295 23.41052597 453.87095642 26.41631413 C453.86924529 28.50708796 453.86931102 30.59786394 453.87107849 32.68863773 C453.86942554 37.06755477 453.85073009 41.44595969 453.81919861 45.82476139 C453.7794968 51.43951267 453.77515639 57.05359392 453.78266144 62.66845894 C453.78572966 66.9844461 453.77361625 71.30028243 453.75653076 75.61623287 C453.7494968 77.68669469 453.74637671 79.75717361 453.7472229 81.82764721 C453.74542672 84.71957831 453.72406086 87.61070382 453.6971283 90.50249577 C453.7000589 91.35922886 453.7029895 92.21596195 453.70600891 93.09865665 C453.68898422 94.28246166 453.68898422 94.28246166 453.6716156 95.49018192 C453.66788689 96.17318898 453.66415817 96.85619604 453.66031647 97.55990028 C453.13230441 100.24228224 452.15918924 101.52675169 450.27720642 103.50615788 C447.82843018 103.98717594 447.82843018 103.98717594 444.88780212 103.96025944 C443.78688736 103.95995731 442.6859726 103.95965519 441.55169678 103.95934391 C440.36412277 103.93869877 439.17654877 103.91805363 437.95298767 103.89678288 C436.12818123 103.88829319 436.12818123 103.88829319 434.26651001 103.879632 C430.37384498 103.85720822 426.48209413 103.80699801 422.58970642 103.75615788 C419.95365199 103.73610076 417.31758315 103.71784863 414.6815033 103.70147038 C408.21309144 103.6573236 401.74521423 103.59035075 395.27720642 103.50615788 C395.27910502 104.12423838 395.28100362 104.74231889 395.28295976 105.37912911 C395.39480391 141.99612803 395.48061577 178.61310172 395.53253307 215.23023642 C395.53878674 219.62502628 395.54525834 224.0198158 395.55186462 228.41460514 C395.55317618 229.28954372 395.55448773 230.16448229 395.55583902 231.06593416 C395.57760689 245.24046934 395.61703599 259.41490333 395.6629704 273.58937844 C395.70969667 288.12926583 395.7374937 302.66910015 395.74764889 317.20905954 C395.75451603 326.18401094 395.77621973 335.15867633 395.81678876 344.13353971 C395.84317989 350.28452499 395.85121569 356.435362 395.84471331 362.58639982 C395.84150469 366.1375078 395.84648827 369.68811536 395.8732338 373.23913479 C395.90200218 377.08676709 395.89216872 380.93374389 395.878479 384.78147221 C395.89304321 385.90695585 395.90760742 387.03243949 395.92261297 388.1920287 C395.84957491 395.75310019 395.84957491 395.75310019 392.86462688 399.68035698 C388.97974765 402.42170346 388.97974765 402.42170346 386.27720642 402.50615788 C383.52720642 401.56865788 383.52720642 401.56865788 381.27720642 400.50615788 C381.27720642 399.84615788 381.27720642 399.18615788 381.27720642 398.50615788 C380.63783142 398.23803288 379.99845642 397.96990788 379.33970642 397.69365788 C377.27720642 396.50615788 377.27720642 396.50615788 376.27720642 393.50615788 C374.27704176 392.29733691 374.27704176 392.29733691 372.27720642 391.50615788 C372.27720642 390.84615788 372.27720642 390.18615788 372.27720642 389.50615788 C371.63783142 389.23803288 370.99845642 388.96990788 370.33970642 388.69365788 C368.27720642 387.50615788 368.27720642 387.50615788 367.27720642 384.50615788 C365.27704176 383.29733691 365.27704176 383.29733691 363.27720642 382.50615788 C363.27720642 381.84615788 363.27720642 381.18615788 363.27720642 380.50615788 C362.65845642 380.21740788 362.03970642 379.92865788 361.40220642 379.63115788 C359.27720642 378.50615788 359.27720642 378.50615788 357.27720642 376.50615788 C356.67908142 377.16615788 356.08095642 377.82615788 355.46470642 378.50615788 C353.27720642 380.50615788 353.27720642 380.50615788 350.27720642 380.50615788 C350.08513611 381.0552985 349.8930658 381.60443913 349.69517517 382.17022038 C347.65583532 385.52979401 344.68803536 387.55971379 341.58970642 389.88115788 C340.31238955 390.85213889 339.03633221 391.82477918 337.76158142 392.79912663 C337.15378845 393.26367252 336.54599548 393.72821842 335.91978455 394.20684147 C333.95234786 395.76312834 332.14763237 397.45622445 330.33970642 399.19365788 C326.66660386 401.96722512 324.77807033 402.12392351 320.27720642 401.50615788 C319.61720642 401.17615788 318.95720642 400.84615788 318.27720642 400.50615788 C318.27720642 399.84615788 318.27720642 399.18615788 318.27720642 398.50615788 C317.44189392 398.13490788 317.44189392 398.13490788 316.58970642 397.75615788 C311.81433213 395.17487447 307.93744956 391.48013614 304.27720642 387.50615788 C304.27720642 386.84615788 304.27720642 386.18615788 304.27720642 385.50615788 C303.44189392 385.16584538 303.44189392 385.16584538 302.58970642 384.81865788 C299.64424143 383.14690747 297.63396458 380.92334573 295.27720642 378.50615788 C294.28720642 377.84615788 293.29720642 377.18615788 292.27720642 376.50615788 C290.1709461 378.10763683 288.06716904 379.71220663 285.96470642 381.31865788 C285.36980408 381.77047428 284.77490173 382.22229069 284.16197205 382.6877985 C281.82386654 384.47729825 279.55075399 386.22784259 277.48423767 388.33037663 C276.27720642 389.50615788 276.27720642 389.50615788 274.27720642 389.50615788 C274.05548767 390.07850163 273.83376892 390.65084538 273.60533142 391.24053288 C271.86887313 394.20272643 269.78446621 395.72211377 267.02720642 397.75615788 C265.62728455 398.81576725 265.62728455 398.81576725 264.19908142 399.89678288 C260.81825962 401.75894676 259.07739099 402.07871902 255.27720642 401.50615788 C252.86314392 400.08037663 252.86314392 400.08037663 250.65220642 398.19365788 C249.9174408 397.57877506 249.18267517 396.96389225 248.42564392 396.33037663 C247.36216736 395.42738834 247.36216736 395.42738834 246.27720642 394.50615788 C245.52697205 393.97635319 244.77673767 393.4465485 244.00376892 392.90068913 C243.4340033 392.44049381 242.86423767 391.9802985 242.27720642 391.50615788 C242.27720642 390.84615788 242.27720642 390.18615788 242.27720642 389.50615788 C241.72033142 389.25865788 241.16345642 389.01115788 240.58970642 388.75615788 C236.75383968 386.6827164 233.75195686 383.99248759 230.71470642 380.88115788 C228.53168997 378.7541162 226.98116361 377.75237916 224.27720642 376.50615788 C223.6971283 377.02565006 223.11705017 377.54514225 222.51939392 378.08037663 C220.11180072 380.22972963 217.6970148 382.37056842 215.27720642 384.50615788 C214.66232361 385.04885319 214.0474408 385.5915485 213.41392517 386.15068913 C209.51693985 389.50615788 209.51693985 389.50615788 207.27720642 389.50615788 C206.94720642 390.49615788 206.61720642 391.48615788 206.27720642 392.50615788 C204.94387309 392.83949121 203.61053975 393.17282454 202.27720642 393.50615788 C201.94720642 394.49615788 201.61720642 395.48615788 201.27720642 396.50615788 C198.14132858 399.65089412 195.14880633 401.35051503 190.77720642 402.13115788 C186.36120628 401.34258642 183.53620034 399.54420305 180.27720642 396.50615788 C179.94720642 395.84615788 179.61720642 395.18615788 179.27720642 394.50615788 C177.26050815 393.37265254 177.26050815 393.37265254 175.27720642 392.50615788 C175.27720642 391.84615788 175.27720642 391.18615788 175.27720642 390.50615788 C174.48636658 390.16391178 174.48636658 390.16391178 173.67955017 389.81475163 C170.47023006 388.06658538 167.69520809 385.8302152 164.83970642 383.56865788 C161.11737498 380.62591714 157.41582869 377.85008787 153.27720642 375.50615788 C153.27720642 376.16615788 153.27720642 376.82615788 153.27720642 377.50615788 C151.36976006 379.06464506 149.46570783 380.51503057 147.46470642 381.94365788 C142.62510652 385.43347691 142.62510652 385.43347691 138.27720642 389.50615788 C133.59149214 393.50615788 133.59149214 393.50615788 131.27720642 393.50615788 C131.07095642 394.08365788 130.86470642 394.66115788 130.65220642 395.25615788 C128.70877769 398.43631398 126.53944006 399.74957053 123.27720642 401.50615788 C119.50163374 401.98518688 117.78540699 401.82495795 114.53111267 399.78350163 C113.19886658 398.62527897 113.19886658 398.62527897 111.83970642 397.44365788 C110.41658142 396.21582584 110.41658142 396.21582584 108.96470642 394.96318913 C106.12507546 392.36707303 103.37990355 389.71386306 100.71470642 386.93975163 C99.1902666 385.35057092 99.1902666 385.35057092 96.83970642 383.69365788 C96.32408142 383.30178288 95.80845642 382.90990788 95.27720642 382.50615788 C95.27720642 381.84615788 95.27720642 381.18615788 95.27720642 380.50615788 C94.38001892 380.07303288 94.38001892 380.07303288 93.46470642 379.63115788 C91.27720642 378.50615788 91.27720642 378.50615788 88.27720642 376.50615788 C87.7899408 376.95604069 87.30267517 377.4059235 86.80064392 377.86943913 C81.48883303 382.68870028 75.9805115 387.17441927 70.307724 391.55571842 C67.19061303 393.96966419 64.21645249 396.42974396 61.33970642 399.13115788 C57.78549495 401.88748514 55.75918592 402.5891575 51.27720642 402.50615788 C48.3296491 401.16053388 46.7344337 400.42061243 45.27720642 397.50615788 C45.18346498 395.89582828 45.15347219 394.28161087 45.15415859 392.66855526 C45.15216754 391.64045486 45.1501765 390.61235447 45.14812511 389.55309951 C45.15103795 388.4149864 45.15395079 387.27687328 45.1569519 386.10427189 C45.15609748 384.90199865 45.15524305 383.6997254 45.15436274 382.46101964 C45.15299601 379.11345401 45.15613799 375.7659463 45.1611408 372.41838765 C45.16544623 368.81239047 45.16399881 365.20639518 45.16323853 361.60039616 C45.16271335 355.34929191 45.16585949 349.09819807 45.17147636 342.84709644 C45.17959222 333.80897542 45.18220667 324.77085945 45.18346436 315.73273517 C45.18565474 301.07012973 45.19231446 286.40752983 45.20176697 271.74492741 C45.21094143 257.49883394 45.2180221 243.25274198 45.22227478 229.00664616 C45.2225375 228.1289949 45.22280023 227.25134365 45.22307091 226.34709691 C45.22437592 221.94432123 45.22563963 217.54154555 45.22688282 213.13876987 C45.23725501 176.59456195 45.25487296 140.05036034 45.27720642 103.50615788 C44.25363289 103.51615063 44.25363289 103.51615063 43.2093811 103.52634525 C36.12079062 103.59260617 29.03228781 103.63792008 21.94346619 103.6709528 C19.29629443 103.68605907 16.64914778 103.70654518 14.00205994 103.73247623 C10.20178541 103.76877779 6.40184116 103.7858659 2.60142517 103.79912663 C0.82006416 103.82235241 0.82006416 103.82235241 -0.99728394 103.8460474 C-2.0981987 103.84627399 -3.19911346 103.84650059 -4.33338928 103.84673405 C-5.78900017 103.8567268 -5.78900017 103.8567268 -7.27401733 103.86692142 C-9.72279358 103.50615788 -9.72279358 103.50615788 -11.53498077 102.23352051 C-13.70903096 99.0719339 -13.15506707 95.12802807 -13.14271545 91.41655827 C-13.151185 90.48620258 -13.15965454 89.5558469 -13.16838074 88.59729862 C-13.19181665 85.5159988 -13.19277132 82.4351964 -13.19154358 79.35381413 C-13.19864117 77.21533856 -13.20633957 75.07686492 -13.21461487 72.93839359 C-13.22807485 68.45352225 -13.22962161 63.96882699 -13.22377014 59.48394108 C-13.21787271 53.73221974 -13.24846086 47.9813421 -13.28888702 42.22978401 C-13.31471697 37.81258422 -13.3176457 33.39558884 -13.31399536 28.97832394 C-13.31569102 26.85759135 -13.32537618 24.73684977 -13.34313965 22.61619091 C-13.3652361 19.65193439 -13.35567468 16.68940184 -13.33802795 13.72515202 C-13.3512912 12.84657536 -13.36455444 11.9679987 -13.3782196 11.0627985 C-13.3670108 10.25387653 -13.355802 9.44495457 -13.34425354 8.61151981 C-13.34496605 7.91116643 -13.34567856 7.21081305 -13.34641266 6.48923683 C-11.41508687 0.34771285 -5.53565588 -0.07009205 0 0 Z " fill="#EEE9E9" transform="translate(29.722793579101563,48.493842124938965)"/>
<path d="M0 0 C0.77416964 -0.00611336 1.54833928 -0.01222672 2.3459686 -0.01852533 C4.9497382 -0.03417188 7.55258252 -0.02124076 10.15635681 -0.00850582 C12.03802314 -0.013829 13.91968522 -0.02089336 15.80133915 -0.02955288 C20.97959789 -0.04823726 26.15757177 -0.0418553 31.33584261 -0.03139985 C36.91738687 -0.02442431 42.49887164 -0.04039319 48.08039856 -0.05339718 C59.01759866 -0.07506964 69.95469484 -0.07490203 80.89190936 -0.06677163 C89.77858152 -0.060479 98.66522331 -0.0616019 107.55189514 -0.06804371 C109.44706063 -0.06939619 109.44706063 -0.06939619 111.3805123 -0.070776 C113.94694798 -0.07262714 116.51338366 -0.0744897 119.07981932 -0.07636356 C136.31783572 -0.0882388 153.55583754 -0.09263594 170.79385376 -0.08142853 C171.46808187 -0.08099056 172.14230997 -0.08055259 172.83696923 -0.08010134 C178.31241216 -0.0764944 183.78785493 -0.07265969 189.26329769 -0.06881041 C210.62572871 -0.05396028 231.98803191 -0.06274518 253.35044861 -0.09076595 C277.34401424 -0.12217768 301.33749416 -0.13710123 325.33108807 -0.12696594 C327.88823127 -0.12594336 330.44537448 -0.12494875 333.0025177 -0.12398243 C334.26077348 -0.12350604 335.51902927 -0.12302965 336.81541401 -0.12253882 C345.69431407 -0.12037149 354.57315475 -0.1301957 363.45204163 -0.14475346 C374.2683181 -0.1622399 385.08442079 -0.16221243 395.90069032 -0.1394018 C401.42232753 -0.12822638 406.94365814 -0.12517173 412.46528244 -0.14370251 C417.51596998 -0.16043512 422.56608178 -0.15425456 427.61673152 -0.12948572 C429.44774653 -0.12457823 431.27880734 -0.12818343 433.10978425 -0.14097316 C435.59202863 -0.15706628 438.07226063 -0.14259415 440.55441284 -0.12025452 C441.62993867 -0.13824203 441.62993867 -0.13824203 442.72719228 -0.15659294 C446.61142695 -0.08482306 448.17209786 0.42011839 451.22090483 2.91580248 C453.28102234 5.51096484 453.90202403 6.42872013 453.89866638 9.64911747 C453.90987518 10.44114063 453.92108398 11.2331638 453.93263245 12.04918766 C453.9193692 12.90389652 453.90610596 13.75860538 453.8924408 14.63921452 C453.89798981 15.55035511 453.90353882 16.4614957 453.90925598 17.40024662 C453.92104826 20.40614066 453.89678295 23.41052597 453.87095642 26.41631413 C453.86924529 28.50708796 453.86931102 30.59786394 453.87107849 32.68863773 C453.86942554 37.06755477 453.85073009 41.44595969 453.81919861 45.82476139 C453.7794968 51.43951267 453.77515639 57.05359392 453.78266144 62.66845894 C453.78572966 66.9844461 453.77361625 71.30028243 453.75653076 75.61623287 C453.7494968 77.68669469 453.74637671 79.75717361 453.7472229 81.82764721 C453.74542672 84.71957831 453.72406086 87.61070382 453.6971283 90.50249577 C453.7000589 91.35922886 453.7029895 92.21596195 453.70600891 93.09865665 C453.68898422 94.28246166 453.68898422 94.28246166 453.6716156 95.49018192 C453.66788689 96.17318898 453.66415817 96.85619604 453.66031647 97.55990028 C453.13230441 100.24228224 452.15918924 101.52675169 450.27720642 103.50615788 C447.82843018 103.98717594 447.82843018 103.98717594 444.88780212 103.96025944 C443.78688736 103.95995731 442.6859726 103.95965519 441.55169678 103.95934391 C440.36412277 103.93869877 439.17654877 103.91805363 437.95298767 103.89678288 C436.12818123 103.88829319 436.12818123 103.88829319 434.26651001 103.879632 C430.37384498 103.85720822 426.48209413 103.80699801 422.58970642 103.75615788 C419.95365199 103.73610076 417.31758315 103.71784863 414.6815033 103.70147038 C408.21309144 103.6573236 401.74521423 103.59035075 395.27720642 103.50615788 C395.27910502 104.12423838 395.28100362 104.74231889 395.28295976 105.37912911 C395.39480391 141.99612803 395.48061577 178.61310172 395.53253307 215.23023642 C395.53878674 219.62502628 395.54525834 224.0198158 395.55186462 228.41460514 C395.55317618 229.28954372 395.55448773 230.16448229 395.55583902 231.06593416 C395.57760689 245.24046934 395.61703599 259.41490333 395.6629704 273.58937844 C395.70969667 288.12926583 395.7374937 302.66910015 395.74764889 317.20905954 C395.75451603 326.18401094 395.77621973 335.15867633 395.81678876 344.13353971 C395.84317989 350.28452499 395.85121569 356.435362 395.84471331 362.58639982 C395.84150469 366.1375078 395.84648827 369.68811536 395.8732338 373.23913479 C395.90200218 377.08676709 395.89216872 380.93374389 395.878479 384.78147221 C395.89304321 385.90695585 395.90760742 387.03243949 395.92261297 388.1920287 C395.84957491 395.75310019 395.84957491 395.75310019 392.86462688 399.68035698 C388.97974765 402.42170346 388.97974765 402.42170346 386.27720642 402.50615788 C383.52720642 401.56865788 383.52720642 401.56865788 381.27720642 400.50615788 C381.27720642 399.84615788 381.27720642 399.18615788 381.27720642 398.50615788 C380.63783142 398.23803288 379.99845642 397.96990788 379.33970642 397.69365788 C377.27720642 396.50615788 377.27720642 396.50615788 376.27720642 393.50615788 C374.27704176 392.29733691 374.27704176 392.29733691 372.27720642 391.50615788 C372.27720642 390.84615788 372.27720642 390.18615788 372.27720642 389.50615788 C371.63783142 389.23803288 370.99845642 388.96990788 370.33970642 388.69365788 C368.27720642 387.50615788 368.27720642 387.50615788 367.27720642 384.50615788 C365.27704176 383.29733691 365.27704176 383.29733691 363.27720642 382.50615788 C363.27720642 381.84615788 363.27720642 381.18615788 363.27720642 380.50615788 C362.65845642 380.21740788 362.03970642 379.92865788 361.40220642 379.63115788 C359.27720642 378.50615788 359.27720642 378.50615788 357.27720642 376.50615788 C356.67908142 377.16615788 356.08095642 377.82615788 355.46470642 378.50615788 C353.27720642 380.50615788 353.27720642 380.50615788 350.27720642 380.50615788 C350.08513611 381.0552985 349.8930658 381.60443913 349.69517517 382.17022038 C347.65583532 385.52979401 344.68803536 387.55971379 341.58970642 389.88115788 C340.31238955 390.85213889 339.03633221 391.82477918 337.76158142 392.79912663 C337.15378845 393.26367252 336.54599548 393.72821842 335.91978455 394.20684147 C333.95234786 395.76312834 332.14763237 397.45622445 330.33970642 399.19365788 C326.66660386 401.96722512 324.77807033 402.12392351 320.27720642 401.50615788 C319.61720642 401.17615788 318.95720642 400.84615788 318.27720642 400.50615788 C318.27720642 399.84615788 318.27720642 399.18615788 318.27720642 398.50615788 C317.44189392 398.13490788 317.44189392 398.13490788 316.58970642 397.75615788 C311.81433213 395.17487447 307.93744956 391.48013614 304.27720642 387.50615788 C304.27720642 386.84615788 304.27720642 386.18615788 304.27720642 385.50615788 C303.44189392 385.16584538 303.44189392 385.16584538 302.58970642 384.81865788 C299.64424143 383.14690747 297.63396458 380.92334573 295.27720642 378.50615788 C294.28720642 377.84615788 293.29720642 377.18615788 292.27720642 376.50615788 C290.1709461 378.10763683 288.06716904 379.71220663 285.96470642 381.31865788 C285.36980408 381.77047428 284.77490173 382.22229069 284.16197205 382.6877985 C281.82386654 384.47729825 279.55075399 386.22784259 277.48423767 388.33037663 C276.27720642 389.50615788 276.27720642 389.50615788 274.27720642 389.50615788 C274.05548767 390.07850163 273.83376892 390.65084538 273.60533142 391.24053288 C271.86887313 394.20272643 269.78446621 395.72211377 267.02720642 397.75615788 C265.62728455 398.81576725 265.62728455 398.81576725 264.19908142 399.89678288 C260.81825962 401.75894676 259.07739099 402.07871902 255.27720642 401.50615788 C252.86314392 400.08037663 252.86314392 400.08037663 250.65220642 398.19365788 C249.9174408 397.57877506 249.18267517 396.96389225 248.42564392 396.33037663 C247.36216736 395.42738834 247.36216736 395.42738834 246.27720642 394.50615788 C245.52697205 393.97635319 244.77673767 393.4465485 244.00376892 392.90068913 C243.4340033 392.44049381 242.86423767 391.9802985 242.27720642 391.50615788 C242.27720642 390.84615788 242.27720642 390.18615788 242.27720642 389.50615788 C241.72033142 389.25865788 241.16345642 389.01115788 240.58970642 388.75615788 C236.75383968 386.6827164 233.75195686 383.99248759 230.71470642 380.88115788 C228.53168997 378.7541162 226.98116361 377.75237916 224.27720642 376.50615788 C223.6971283 377.02565006 223.11705017 377.54514225 222.51939392 378.08037663 C220.11180072 380.22972963 217.6970148 382.37056842 215.27720642 384.50615788 C214.66232361 385.04885319 214.0474408 385.5915485 213.41392517 386.15068913 C209.51693985 389.50615788 209.51693985 389.50615788 207.27720642 389.50615788 C206.94720642 390.49615788 206.61720642 391.48615788 206.27720642 392.50615788 C204.94387309 392.83949121 203.61053975 393.17282454 202.27720642 393.50615788 C201.94720642 394.49615788 201.61720642 395.48615788 201.27720642 396.50615788 C198.14132858 399.65089412 195.14880633 401.35051503 190.77720642 402.13115788 C186.36120628 401.34258642 183.53620034 399.54420305 180.27720642 396.50615788 C179.94720642 395.84615788 179.61720642 395.18615788 179.27720642 394.50615788 C177.26050815 393.37265254 177.26050815 393.37265254 175.27720642 392.50615788 C175.27720642 391.84615788 175.27720642 391.18615788 175.27720642 390.50615788 C174.48636658 390.16391178 174.48636658 390.16391178 173.67955017 389.81475163 C170.47023006 388.06658538 167.69520809 385.8302152 164.83970642 383.56865788 C161.11737498 380.62591714 157.41582869 377.85008787 153.27720642 375.50615788 C153.27720642 376.16615788 153.27720642 376.82615788 153.27720642 377.50615788 C151.36976006 379.06464506 149.46570783 380.51503057 147.46470642 381.94365788 C142.62510652 385.43347691 142.62510652 385.43347691 138.27720642 389.50615788 C133.59149214 393.50615788 133.59149214 393.50615788 131.27720642 393.50615788 C131.07095642 394.08365788 130.86470642 394.66115788 130.65220642 395.25615788 C128.70877769 398.43631398 126.53944006 399.74957053 123.27720642 401.50615788 C119.50163374 401.98518688 117.78540699 401.82495795 114.53111267 399.78350163 C113.19886658 398.62527897 113.19886658 398.62527897 111.83970642 397.44365788 C110.41658142 396.21582584 110.41658142 396.21582584 108.96470642 394.96318913 C106.12507546 392.36707303 103.37990355 389.71386306 100.71470642 386.93975163 C99.1902666 385.35057092 99.1902666 385.35057092 96.83970642 383.69365788 C96.32408142 383.30178288 95.80845642 382.90990788 95.27720642 382.50615788 C95.27720642 381.84615788 95.27720642 381.18615788 95.27720642 380.50615788 C94.38001892 380.07303288 94.38001892 380.07303288 93.46470642 379.63115788 C91.27720642 378.50615788 91.27720642 378.50615788 88.27720642 376.50615788 C87.7899408 376.95604069 87.30267517 377.4059235 86.80064392 377.86943913 C81.48883303 382.68870028 75.9805115 387.17441927 70.307724 391.55571842 C67.19061303 393.96966419 64.21645249 396.42974396 61.33970642 399.13115788 C57.78549495 401.88748514 55.75918592 402.5891575 51.27720642 402.50615788 C48.3296491 401.16053388 46.7344337 400.42061243 45.27720642 397.50615788 C45.18346498 395.89582828 45.15347219 394.28161087 45.15415859 392.66855526 C45.15216754 391.64045486 45.1501765 390.61235447 45.14812511 389.55309951 C45.15103795 388.4149864 45.15395079 387.27687328 45.1569519 386.10427189 C45.15609748 384.90199865 45.15524305 383.6997254 45.15436274 382.46101964 C45.15299601 379.11345401 45.15613799 375.7659463 45.1611408 372.41838765 C45.16544623 368.81239047 45.16399881 365.20639518 45.16323853 361.60039616 C45.16271335 355.34929191 45.16585949 349.09819807 45.17147636 342.84709644 C45.17959222 333.80897542 45.18220667 324.77085945 45.18346436 315.73273517 C45.18565474 301.07012973 45.19231446 286.40752983 45.20176697 271.74492741 C45.21094143 257.49883394 45.2180221 243.25274198 45.22227478 229.00664616 C45.2225375 228.1289949 45.22280023 227.25134365 45.22307091 226.34709691 C45.22437592 221.94432123 45.22563963 217.54154555 45.22688282 213.13876987 C45.23725501 176.59456195 45.25487296 140.05036034 45.27720642 103.50615788 C44.25363289 103.51615063 44.25363289 103.51615063 43.2093811 103.52634525 C36.12079062 103.59260617 29.03228781 103.63792008 21.94346619 103.6709528 C19.29629443 103.68605907 16.64914778 103.70654518 14.00205994 103.73247623 C10.20178541 103.76877779 6.40184116 103.7858659 2.60142517 103.79912663 C0.82006416 103.82235241 0.82006416 103.82235241 -0.99728394 103.8460474 C-2.0981987 103.84627399 -3.19911346 103.84650059 -4.33338928 103.84673405 C-5.78900017 103.8567268 -5.78900017 103.8567268 -7.27401733 103.86692142 C-9.72279358 103.50615788 -9.72279358 103.50615788 -11.53498077 102.23352051 C-13.70903096 99.0719339 -13.15506707 95.12802807 -13.14271545 91.41655827 C-13.151185 90.48620258 -13.15965454 89.5558469 -13.16838074 88.59729862 C-13.19181665 85.5159988 -13.19277132 82.4351964 -13.19154358 79.35381413 C-13.19864117 77.21533856 -13.20633957 75.07686492 -13.21461487 72.93839359 C-13.22807485 68.45352225 -13.22962161 63.96882699 -13.22377014 59.48394108 C-13.21787271 53.73221974 -13.24846086 47.9813421 -13.28888702 42.22978401 C-13.31471697 37.81258422 -13.3176457 33.39558884 -13.31399536 28.97832394 C-13.31569102 26.85759135 -13.32537618 24.73684977 -13.34313965 22.61619091 C-13.3652361 19.65193439 -13.35567468 16.68940184 -13.33802795 13.72515202 C-13.3512912 12.84657536 -13.36455444 11.9679987 -13.3782196 11.0627985 C-13.3670108 10.25387653 -13.355802 9.44495457 -13.34425354 8.61151981 C-13.34496605 7.91116643 -13.34567856 7.21081305 -13.34641266 6.48923683 C-11.41508687 0.34771285 -5.53565588 -0.07009205 0 0 Z M60.27720642 59.50615788 C60.27720642 165.10615788 60.27720642 270.70615788 60.27720642 379.50615788 C66.40843846 374.96515928 66.40843846 374.96515928 72.23423767 370.14678288 C73.19039978 369.30953678 73.19039978 369.30953678 74.1658783 368.45537663 C74.80074158 367.89463444 75.43560486 367.33389225 76.08970642 366.75615788 C77.38649863 365.61395863 78.68462368 364.47327041 79.98423767 363.33428288 C80.826922 362.59033268 80.826922 362.59033268 81.68663025 361.83135319 C84.43791225 359.53911087 85.81638783 358.51519353 89.46470642 358.44365788 C97.5531609 360.69781732 103.05125118 368.24025273 108.80064392 374.06084538 C112.15568805 377.37355456 115.67452879 380.46702758 119.27720642 383.50615788 C123.04579406 382.19962662 125.50542538 380.66971608 128.40220642 377.94365788 C132.69291165 374.00991648 137.10238558 370.27682985 141.64048767 366.63115788 C143.28591188 365.30506784 144.9122638 363.95451434 146.50767517 362.56865788 C147.50734314 361.73334538 147.50734314 361.73334538 148.52720642 360.88115788 C149.08923767 360.39389225 149.65126892 359.90662663 150.23033142 359.40459538 C153.55469181 357.94542956 155.81914257 358.59906404 159.27720642 359.50615788 C161.54367808 361.09499488 163.40445684 362.57677902 165.40220642 364.44365788 C166.52619418 365.44495974 167.65256733 366.44358932 168.78111267 367.43975163 C169.63987 368.20327946 169.63987 368.20327946 170.51597595 368.98223209 C173.36345861 371.44605061 176.34216243 373.72910325 179.33970642 376.00615788 C180.38255798 376.80022038 181.42540955 377.59428288 182.49986267 378.41240788 C183.41638611 379.10334538 184.33290955 379.79428288 185.27720642 380.50615788 C185.97716736 381.11459538 186.6771283 381.72303288 187.39830017 382.34990788 C189.18550151 383.68915828 189.18550151 383.68915828 191.21861267 383.43584538 C193.94518865 382.20448848 195.92812951 380.56357325 198.21470642 378.63115788 C199.17634705 377.82549381 200.13798767 377.01982975 201.12876892 376.18975163 C202.17925674 375.29640509 203.22869727 374.40182592 204.27720642 373.50615788 C205.9836374 372.04880838 207.6900924 370.59150927 209.39854431 369.13652897 C210.49724312 368.19913761 211.59296654 367.25824354 212.68516541 366.31328678 C221.23923454 358.98739054 221.23923454 358.98739054 225.74205017 357.92412663 C229.58283787 358.80590993 232.006478 361.228796 234.83970642 363.81865788 C235.44741882 364.35539127 236.05513123 364.89212467 236.68125916 365.44512272 C239.72377503 368.1461519 242.71220371 370.90291324 245.68345642 373.68193913 C246.2164032 374.17846989 246.74934998 374.67500065 247.29844666 375.1865778 C248.76027801 376.55671183 250.20861143 377.94120566 251.65611267 379.32647038 C254.17111368 381.41793172 256.18653238 382.5113297 259.27720642 383.50615788 C266.07150958 378.01525165 272.75994898 372.42800293 279.32847595 366.66924381 C288.59204697 358.6309845 288.59204697 358.6309845 293.65220642 358.25615788 C298.08043519 359.78313331 300.10923966 361.93410139 303.24205017 365.32647038 C305.1589386 367.379491 307.13821914 369.18948375 309.27720642 371.00615788 C312.89449468 374.09651832 316.17089901 377.42957267 319.41783142 380.90459538 C321.48658364 382.6865038 322.58682615 383.18672041 325.27720642 383.50615788 C327.0203454 382.60217535 327.0203454 382.60217535 328.56236267 381.07647038 C329.17039734 380.53232487 329.77843201 379.98817936 330.40489197 379.42754459 C331.04338074 378.83473698 331.68186951 378.24192936 332.33970642 377.63115788 C333.67976403 376.42682091 335.02091841 375.22370325 336.36314392 374.02178288 C337.02411072 373.42430241 337.68507751 372.82682194 338.36607361 372.211236 C341.00616731 369.85579216 343.72067763 367.61484169 346.46470642 365.38115788 C347.30388611 364.69795475 348.1430658 364.01475163 349.00767517 363.31084538 C349.75662048 362.7152985 350.5055658 362.11975163 351.27720642 361.50615788 C351.89208923 360.910611 352.50697205 360.31506413 353.14048767 359.70147038 C355.27720642 358.50615788 355.27720642 358.50615788 358.50767517 358.31475163 C363.93932535 360.0314908 366.79297432 363.4482007 370.58970642 367.56865788 C371.99822976 369.06354694 373.41078348 370.55465223 374.82798767 372.04131413 C375.75091614 373.03723576 375.75091614 373.03723576 376.69248962 374.05327702 C378.16458586 375.73141827 378.16458586 375.73141827 380.27720642 375.50615788 C380.27720642 271.22615788 380.27720642 166.94615788 380.27720642 59.50615788 C274.67720642 59.50615788 169.07720642 59.50615788 60.27720642 59.50615788 Z " fill="#090909" transform="translate(29.722793579101563,48.493842124938965)"/>
<path d="M0 0 C1.48396095 -0.01265991 1.48396095 -0.01265991 2.9979009 -0.02557558 C4.08757227 -0.01956553 5.17724363 -0.01355549 6.29993534 -0.00736332 C8.03301483 -0.01544163 8.03301483 -0.01544163 9.80110604 -0.02368313 C13.01336005 -0.03554142 16.22528336 -0.03387854 19.43754065 -0.02651632 C22.89978923 -0.02179851 26.3619814 -0.03428216 29.82421207 -0.04453373 C36.60906126 -0.06175452 43.39381796 -0.06255496 50.17868333 -0.05732083 C55.69203161 -0.05328393 61.20535249 -0.05471695 66.71869946 -0.06006908 C67.89449826 -0.06119172 67.89449826 -0.06119172 69.09405058 -0.06233703 C70.68633406 -0.06386846 72.27861753 -0.06540681 73.870901 -0.066952 C88.812588 -0.08068894 103.75422268 -0.07523101 118.69590849 -0.06376678 C132.37300427 -0.05383342 146.04996478 -0.06677471 159.72703969 -0.09070098 C173.7619221 -0.11506869 187.79674145 -0.12470557 201.83164459 -0.11804825 C209.71468416 -0.1145508 217.59761966 -0.11682261 225.48064327 -0.13429928 C232.19145544 -0.14899224 238.90209029 -0.14969501 245.61289888 -0.13222837 C249.03825208 -0.12369174 252.46328814 -0.12163298 255.88862514 -0.13687992 C259.59862302 -0.14998349 263.30774929 -0.13863576 267.01770878 -0.12088871 C268.10514942 -0.13049372 269.19259006 -0.14009872 270.31298345 -0.14999479 C277.5730197 -0.07816192 277.5730197 -0.07816192 280.89085579 2.26462364 C282.50154131 4.82401041 282.72882723 6.34528496 282.73989201 9.36078548 C282.75250065 10.34861019 282.76510929 11.3364349 282.77810001 12.35419369 C282.76595463 13.9449371 282.76595463 13.9449371 282.75356388 15.56781673 C282.75739079 16.6624725 282.76121769 17.75712826 282.76516056 18.88495541 C282.76788125 21.19819719 282.76050922 23.51146965 282.74379826 25.82465267 C282.72239228 29.36734196 282.74359614 32.9080031 282.76918888 36.45062923 C282.76654563 38.69802955 282.76142072 40.9454286 282.75356388 43.19281673 C282.7616608 44.25331234 282.76975773 45.31380795 282.77810001 46.40643978 C282.75918705 47.88817684 282.75918705 47.88817684 282.73989201 49.39984798 C282.73670963 50.26714535 282.73352726 51.13444271 282.73024845 52.02802181 C281.99147824 55.44933926 281.11304403 56.33652365 278.22231388 58.38031673 C274.51011438 58.99850313 270.81802543 58.91919784 267.06240177 58.8882513 C265.33416597 58.89761125 265.33416597 58.89761125 263.57101631 58.90716028 C260.37232554 58.92036899 257.1742403 58.91559614 253.97556448 58.90321541 C250.52627689 58.89417761 247.07707215 58.90812828 243.62780094 58.91913509 C236.87046304 58.9369386 230.11330266 58.93307226 223.35595775 58.92148453 C217.86503468 58.91245765 212.37416143 58.91122297 206.88323307 58.9155798 C206.10227805 58.91619273 205.32132303 58.91680566 204.51670271 58.91743717 C202.93029776 58.91871604 201.34389282 58.9200129 199.75748789 58.92132753 C184.87538772 58.93273869 169.99338604 58.91961125 155.11130202 58.89812607 C142.3367332 58.88025458 129.56230976 58.88335854 116.78774357 58.90180111 C101.95956464 58.92319839 87.13147208 58.93164 72.30327988 58.91935205 C70.7226515 58.91807783 69.1420231 58.91682035 67.56139469 58.9155798 C66.7836584 58.91496269 66.0059221 58.91434559 65.20461804 58.91370979 C59.71913207 58.91025345 54.2337008 58.91609132 48.7482233 58.92549801 C42.06487418 58.93670672 35.38171302 58.93370189 28.69838548 58.91237503 C25.28720805 58.9018492 21.87634419 58.89776842 18.46516895 58.91097164 C14.77053834 58.92184562 11.07679926 58.90826073 7.38222599 58.8882513 C5.75792463 58.90163563 5.75792463 58.90163563 4.1008091 58.91529036 C-3.12792181 58.83895742 -3.12792181 58.83895742 -6.44385529 56.49838257 C-8.07701576 53.90499418 -8.27882315 52.3489393 -8.2793951 49.29218197 C-8.28877605 48.28110882 -8.29815701 47.27003567 -8.30782223 46.22832394 C-8.29658825 45.1428175 -8.28535427 44.05731106 -8.27377987 42.93891048 C-8.2752351 41.819687 -8.27669033 40.70046352 -8.27818966 39.54732418 C-8.27653045 37.18279064 -8.2649669 34.81824633 -8.24423885 32.45380306 C-8.21526694 28.82793152 -8.22363375 25.20351999 -8.23667049 21.57758236 C-8.23043376 19.28135127 -8.22204333 16.98512481 -8.21127987 14.68891048 C-8.21421551 13.60137981 -8.21715115 12.51384914 -8.22017574 11.393363 C-8.20749157 10.38544201 -8.1948074 9.37752102 -8.18173885 8.33905697 C-8.17633587 7.4517741 -8.17093288 6.56449123 -8.16536617 5.65032101 C-7.34808193 0.86483178 -4.47472844 0.00537738 0 0 Z " fill="#040406" transform="translate(112.77768611907959,318.61968326568604)"/>
<path d="M0 0 C143.88 0 287.76 0 436 0 C436 24.09 436 48.18 436 73 C421.48 73 406.96 73 392 73 C392 63.43 392 53.86 392 44 C400.91 43.67 409.82 43.34 419 43 C420.180933 39.457201 420.27028374 36.71640139 420 33 C416.37374644 30.58249762 414.72227709 30.74947638 410.40511227 30.74831772 C409.39032711 30.7439574 409.39032711 30.7439574 408.35504124 30.73950899 C406.07164242 30.73216802 403.78850888 30.73917123 401.50511169 30.74603271 C399.85815116 30.7437299 398.21119166 30.74055459 396.56423432 30.73657823 C392.02561789 30.72819699 387.48708513 30.73237053 382.94846833 30.73855066 C378.05886069 30.74306056 373.16926782 30.73609871 368.27966309 30.73059082 C358.69611703 30.72167968 349.11260223 30.72362641 339.52905493 30.7294161 C331.74357553 30.73392557 323.95810492 30.7345486 316.17262459 30.73236847 C315.06623937 30.732062 313.95985415 30.73175554 312.81994211 30.73143978 C310.57263517 30.73080036 308.32532823 30.73015193 306.0780213 30.7294946 C284.98639382 30.72378634 263.8947837 30.73035712 242.80315907 30.74109533 C224.68785581 30.75003253 206.57257818 30.74847837 188.45727539 30.73925781 C167.44161766 30.72856607 146.42597516 30.7243344 125.4103151 30.73048234 C123.17139662 30.73111947 120.93247813 30.73174821 118.69355965 30.73236847 C117.59184604 30.73267702 116.49013243 30.73298557 115.35503356 30.73330347 C107.57433118 30.73503361 99.79363843 30.73210848 92.01293755 30.72740936 C82.53751819 30.72181273 73.062132 30.72329126 63.58671647 30.73397085 C58.74806759 30.73924385 53.9094741 30.74125674 49.07082558 30.73467255 C44.64767414 30.72874455 40.22462979 30.73193564 35.80148817 30.74262765 C34.19522825 30.74487513 32.58895943 30.74369554 30.98270517 30.73887607 C28.81135419 30.7328572 26.64037749 30.73896787 24.46904659 30.74831772 C23.25936496 30.74864242 22.04968332 30.74896713 20.80334467 30.74930167 C17.86216505 30.71029354 17.86216505 30.71029354 16 33 C15.68462284 37.33643601 15.55102153 39.32653229 18 43 C20.61196291 43.51012565 20.61196291 43.51012565 23.6640625 43.51171875 C25.1792749 43.56138794 25.1792749 43.56138794 26.72509766 43.61206055 C28.01206543 43.63695557 29.2990332 43.66185059 30.625 43.6875 C34.70875 43.790625 38.7925 43.89375 43 44 C43 53.57 43 63.14 43 73 C28.81 73 14.62 73 0 73 C0 48.91 0 24.82 0 0 Z " fill="#365B7A" transform="translate(32,64)"/>
<path d="M0 0 C86.46 0 172.92 0 262 0 C262 9.9 262 19.8 262 30 C175.54 30 89.08 30 0 30 C0 20.1 0 10.2 0 0 Z " fill="#5D9AEF" transform="translate(119,333)"/>
<path d="M0 0 C0.8138507 -0.00064941 1.6277014 -0.00129882 2.46621424 -0.00196791 C3.87702388 -0.01761439 3.87702388 -0.01761439 5.31633472 -0.03357697 C6.35153281 -0.02465408 7.3867309 -0.01573119 8.45329863 -0.00653791 C9.55151522 -0.01277788 10.64973182 -0.01901784 11.78122771 -0.02544689 C15.48024364 -0.04146754 19.17860887 -0.02873667 22.87763029 -0.01618147 C25.52181506 -0.02159859 28.1659542 -0.02857359 30.81012541 -0.0374217 C37.25812014 -0.05523449 43.70592892 -0.0513546 50.15393101 -0.03977114 C55.39363916 -0.0307471 60.6332951 -0.02950834 65.87300879 -0.03386641 C66.99052501 -0.0347858 66.99052501 -0.0347858 68.13061731 -0.03572378 C69.6439828 -0.03700265 71.15734827 -0.0382995 72.67071373 -0.03961414 C86.8713312 -0.05102822 101.07184549 -0.03789371 115.27244604 -0.01641268 C127.46201881 0.00145541 139.65143919 -0.00164176 151.8410092 -0.02008772 C165.9883528 -0.0414862 180.13560587 -0.04992563 194.2829634 -0.03763866 C195.79114827 -0.03636444 197.29933316 -0.03510696 198.80751806 -0.03386641 C199.54961592 -0.0332493 200.29171377 -0.0326322 201.05629943 -0.0319964 C206.2903029 -0.02854014 211.52424903 -0.03437783 216.75824362 -0.04378462 C223.13602868 -0.05499482 229.51361678 -0.05198553 235.89137923 -0.03066164 C239.14662849 -0.02013715 242.40148066 -0.01819989 245.65673834 -0.02925825 C249.18284356 -0.04013497 252.70801516 -0.02654415 256.23406035 -0.00653791 C257.7835114 -0.01992224 257.7835114 -0.01992224 259.36426449 -0.03357697 C266.24176572 0.04248658 266.24176572 0.04248658 269.55861574 2.33001757 C271.3263353 5.17631428 271.20596183 7.21470089 270.90717131 10.50139666 C270.24717131 10.50139666 269.58717131 10.50139666 268.90717131 10.50139666 C268.90717131 11.16139666 268.90717131 11.82139666 268.90717131 12.50139666 C265.89604603 14.23367325 263.73339817 14.75260273 260.27193266 14.75866556 C259.33985204 14.76511445 258.40777142 14.77156335 257.44744593 14.77820766 C255.91652733 14.77356185 255.91652733 14.77356185 254.35468107 14.76882219 C252.72445053 14.77561886 252.72445053 14.77561886 251.06128603 14.78255284 C247.40700708 14.79524801 243.75287618 14.79357317 240.09857756 14.791924 C237.48381933 14.79790596 234.86906288 14.80471073 232.25430876 14.81227922 C225.88203747 14.82889409 219.50980317 14.83438895 213.13751203 14.83550398 C207.95933686 14.83645403 202.78117391 14.84056214 197.60300261 14.84690523 C182.9271091 14.86451736 168.25124484 14.87374391 153.57534069 14.87224428 C152.78411237 14.87216437 151.99288405 14.87208446 151.17767912 14.87200212 C150.38548684 14.87192036 149.59329456 14.8718386 148.77709645 14.87175436 C135.93101461 14.87094101 123.08504988 14.89009121 110.23900193 14.91827886 C97.05386292 14.94698276 83.86878108 14.9608206 70.68361002 14.95909131 C63.27900502 14.95842664 55.87452287 14.96395261 48.46994597 14.98544741 C41.50961766 15.005523 34.54955339 15.00501115 27.58921248 14.99041414 C25.0301444 14.98831477 22.47106039 14.99309347 19.91201979 15.00513506 C16.42759003 15.02047331 12.94407041 15.01135449 9.45966154 14.99587297 C8.43904914 15.0061601 7.41843674 15.01644723 6.36689669 15.02704608 C-0.43814118 14.95989529 -0.43814118 14.95989529 -3.72501558 12.65799189 C-5.59129662 9.71547529 -5.59208065 7.92483869 -5.09282869 4.50139666 C-3.63251443 1.96719953 -2.89907114 0.69455497 0 0 Z " fill="#040404" transform="translate(117.0928286910057,282.4986033439636)"/>
<path d="M0 0 C1.703125 1.203125 1.703125 1.203125 3 3 C3.29296875 5.69921875 3.29296875 5.69921875 3.1875 8.6875 C3.14689453 10.17830078 3.14689453 10.17830078 3.10546875 11.69921875 C3.07066406 12.45847656 3.03585938 13.21773437 3 14 C3.67546875 13.95359375 4.3509375 13.9071875 5.046875 13.859375 C12.29883139 13.56594324 12.29883139 13.56594324 15.625 15.625 C17.40841979 18.70545237 17.51186027 20.49010104 17 24 C15.85351562 26.15161133 15.85351562 26.15161133 14 28 C11.22851562 28.5300293 11.22851562 28.5300293 7.90625 28.57421875 C6.71128906 28.60193359 5.51632813 28.62964844 4.28515625 28.65820312 C3.03605469 28.66787109 1.78695312 28.67753906 0.5 28.6875 C-1.96881271 28.72953861 -4.43757096 28.77495169 -6.90625 28.82421875 C-8.00259766 28.83541748 -9.09894531 28.84661621 -10.22851562 28.8581543 C-13.08757364 28.88067795 -13.08757364 28.88067795 -16 30 C-17.90316736 32.56927593 -18.0060749 33.89875161 -17.8125 37.125 C-17.25088039 40.30207184 -17.25088039 40.30207184 -14 42 C-11.42123018 42.17497771 -8.89261026 42.26835027 -6.3125 42.3125 C2.62705107 42.68572975 7.31601526 44.96978756 13.375 51.375 C17.05890547 56.03258076 18.26974138 60.53662239 17.875 66.4375 C16.94319841 72.8614498 14.22114079 78.97226282 9 83 C4.47636373 85.34558918 1.09462356 86.37277733 -4 86 C-3.94199219 86.66386719 -3.88398438 87.32773438 -3.82421875 88.01171875 C-3.45686901 95.20127796 -3.45686901 95.20127796 -6.125 99.125 C-9 101 -9 101 -12.0625 101.6875 C-15 101 -15 101 -17.375 98.5625 C-19.38348154 94.15929047 -19.38004558 90.75056978 -19 86 C-19.75925781 86.04640625 -20.51851562 86.0928125 -21.30078125 86.140625 C-22.29464844 86.17671875 -23.28851563 86.2128125 -24.3125 86.25 C-25.29863281 86.29640625 -26.28476563 86.3428125 -27.30078125 86.390625 C-30 86 -30 86 -31.828125 84.171875 C-33.42934748 81.20427601 -33.48484326 79.32463947 -33 76 C-30.84557825 73.16927939 -29.67764072 72.11393959 -26.13085938 71.51757812 C-25.04611328 71.52208984 -23.96136719 71.52660156 -22.84375 71.53125 C-21.65652344 71.51707031 -20.46929687 71.50289063 -19.24609375 71.48828125 C-16.74869792 71.49609375 -14.25130208 71.50390625 -11.75390625 71.51171875 C-10.56667969 71.49753906 -9.37945312 71.48335938 -8.15625 71.46875 C-7.07150391 71.47326172 -5.98675781 71.47777344 -4.86914062 71.48242188 C-1.32062413 70.88576866 -0.15626675 69.8315389 2 67 C2.66680368 63.95720628 2.66680368 63.95720628 2 61 C-0.49080331 58.32632758 -1.96627731 58.00343371 -5.64453125 57.62890625 C-7.03371579 57.59933499 -8.42308167 57.57749487 -9.8125 57.5625 C-17.09786246 57.27708732 -21.39296819 56.63237395 -26.66796875 51.3203125 C-32.26346092 45.12672734 -33.52015059 40.66495491 -33.37890625 32.265625 C-32.66040278 26.07316212 -29.53428607 22.18941187 -25 18.125 C-20.17698334 14.70869653 -16.91595886 13.72483912 -11 14 C-11.04640625 13.25234375 -11.0928125 12.5046875 -11.140625 11.734375 C-11.43281527 3.76175487 -11.43281527 3.76175487 -9.4375 0.25 C-5.91905291 -1.55433184 -3.75426361 -1.02389008 0 0 Z " fill="#060606" transform="translate(174,138)"/>
<path d="M0 0 C1.26039597 -0.00990463 2.52079193 -0.01980927 3.81938171 -0.03001404 C5.21370031 -0.02577602 6.60801797 -0.02121816 8.00233459 -0.01637268 C9.47263102 -0.02207573 10.94292301 -0.02903974 12.41320801 -0.03717041 C16.40497886 -0.05512458 20.39653015 -0.05392921 24.38832927 -0.04822803 C27.7209 -0.04513933 31.05342836 -0.05122508 34.38599306 -0.05726677 C42.24805155 -0.07131789 50.11000139 -0.06974594 57.97206116 -0.05836487 C66.08260547 -0.04688352 74.19281913 -0.06095811 82.30331987 -0.08776134 C89.2673513 -0.10991398 96.23127891 -0.11655671 103.19534308 -0.11068493 C107.35439919 -0.10731302 111.51324334 -0.10974576 115.67226982 -0.12693596 C119.58350505 -0.14239614 123.49425028 -0.1384603 127.40546608 -0.11963081 C128.84015687 -0.11594227 130.27488389 -0.11906123 131.70954132 -0.1295166 C133.66936085 -0.14270776 135.6293068 -0.12878247 137.58911133 -0.11352539 C138.68545867 -0.11331611 139.78180601 -0.11310682 140.911376 -0.1128912 C144.5747773 0.50943585 146.25207003 1.78036013 148.85804749 4.38768005 C149.54554749 7.32518005 149.54554749 7.32518005 148.85804749 10.38768005 C146.08185054 13.80996551 144.32933346 15.15388049 139.94114494 15.8512001 C136.14897945 16.04082874 132.37353449 16.06415503 128.57850647 16.03465271 C127.11776135 16.04143294 125.65702478 16.05033836 124.19630432 16.061203 C120.23962439 16.08395334 116.28359794 16.07517865 112.32690692 16.05930758 C108.1825708 16.04662866 104.03828978 16.05839398 99.89395142 16.0662384 C92.9359993 16.07532818 85.97831277 16.06336376 79.020401 16.03953552 C70.97902391 16.01231465 62.9382805 16.02114775 54.89691871 16.04866755 C47.98801676 16.07136414 41.07930546 16.0745564 34.17037827 16.0614742 C30.04597941 16.05368401 25.92187836 16.0526262 21.7974987 16.06915665 C17.92057782 16.08361077 14.04447344 16.0735637 10.16764069 16.04468536 C8.74586149 16.03807987 7.32401345 16.03996323 5.90226173 16.05099869 C3.96005347 16.06468297 2.01769484 16.04447072 0.07556152 16.02259827 C-1.01081384 16.02071314 -2.0971892 16.01882801 -3.21648502 16.01688576 C-7.14959457 15.17095772 -8.68438182 13.50929947 -11.14195251 10.38768005 C-11.20445251 6.76268005 -11.20445251 6.76268005 -10.14195251 3.38768005 C-6.94908687 0.18689497 -4.42029961 0.00980033 0 0 Z " fill="#090A09" transform="translate(239.14195251464844,136.61231994628906)"/>
<path d="M0 0 C1.86741348 -0.01268921 1.86741348 -0.01268921 3.77255249 -0.02563477 C5.14434946 -0.0198024 6.51614513 -0.01365793 7.88793945 -0.00723267 C9.33867793 -0.01129963 10.7894133 -0.01664221 12.24014282 -0.02316284 C16.1740187 -0.03682752 20.10765828 -0.03154137 24.04153824 -0.02202559 C28.16051109 -0.01442458 32.27946385 -0.02147583 36.3984375 -0.02618408 C43.31522246 -0.03164035 50.23191128 -0.02445342 57.14868164 -0.01016235 C65.14275282 0.00616395 73.13659444 0.00087535 81.13066006 -0.01564157 C87.99704419 -0.02926012 94.86335926 -0.0311743 101.72975254 -0.02332556 C105.82950668 -0.01865107 109.92915296 -0.01801802 114.02890015 -0.02793503 C117.88345447 -0.03660782 121.73771314 -0.03057727 125.59223557 -0.01325226 C127.00595992 -0.00928906 128.41970921 -0.01041865 129.83342361 -0.01704025 C131.76475378 -0.02525154 133.69613838 -0.01312334 135.62744141 0 C136.70774124 0.00113108 137.78804108 0.00226215 138.90107727 0.00342751 C142.25344738 0.43794627 144.13775163 1.33600107 146.8137207 3.38095093 C147.8253058 6.55058422 148.12046577 8.46071573 147.0637207 11.63095093 C145.8137207 13.38095093 145.8137207 13.38095093 142.8137207 15.38095093 C140.0975275 15.64101315 140.0975275 15.64101315 136.74732971 15.65510559 C135.4784491 15.66508072 134.20956848 15.67505585 132.90223694 15.68533325 C131.49325574 15.68622906 130.08427438 15.68689263 128.67529297 15.68734741 C127.19367046 15.69496759 125.71205192 15.70339485 124.23043823 15.71257019 C120.20360862 15.73453404 116.17685495 15.74331641 112.1499722 15.74839664 C109.63509228 15.75203749 107.12023234 15.75827607 104.60536003 15.76539803 C95.83455402 15.7898975 87.06380722 15.80294583 78.29296875 15.80648804 C70.11251847 15.8101254 61.9324429 15.84003362 53.7521072 15.88189262 C46.73207164 15.91655732 39.71216051 15.9320358 32.69203991 15.93273407 C28.4977131 15.9335281 24.30376801 15.94232392 20.1095295 15.97073174 C16.16543168 15.99684792 12.22203383 15.99915441 8.27788925 15.9830761 C6.82986237 15.9812565 5.38179583 15.98799842 3.93385506 16.00389481 C1.95837158 16.02426191 -0.01737442 16.01084915 -1.99290466 15.99568176 C-3.09884696 15.99769309 -4.20478926 15.99970442 -5.34424496 16.0017767 C-8.1862793 15.38095093 -8.1862793 15.38095093 -10.56945896 13.06909275 C-12.1862793 10.38095093 -12.1862793 10.38095093 -12.2487793 6.75595093 C-11.1862793 3.38095093 -11.1862793 3.38095093 -9.0065155 1.69382286 C-5.75645971 0.18086199 -3.57544072 0.0037435 0 0 Z " fill="#0B0B0B" transform="translate(240.186279296875,245.61904907226563)"/>
<path d="M0 0 C1.91594215 -0.01279495 1.91594215 -0.01279495 3.87059021 -0.02584839 C5.28901685 -0.02514934 6.70744339 -0.02422627 8.12586975 -0.02310181 C9.61734352 -0.0290851 11.10881419 -0.03589018 12.60028076 -0.04345703 C16.65397794 -0.06114348 20.70759071 -0.06581349 24.76132274 -0.0670886 C28.14363708 -0.06898647 31.52593171 -0.07634261 34.90823847 -0.08343279 C42.88671685 -0.09972401 50.86515009 -0.10460104 58.84364319 -0.10317993 C67.07857132 -0.10197793 75.31323761 -0.1230896 83.54809946 -0.15466726 C90.6148432 -0.18080165 97.68150127 -0.19154844 104.74829298 -0.19026911 C108.97050238 -0.18975869 113.19247909 -0.19548612 117.41464043 -0.21662521 C121.38493198 -0.23596032 125.35476771 -0.2361649 129.32507515 -0.22159195 C130.78276865 -0.21949691 132.24049032 -0.22424606 133.69813538 -0.23631287 C135.68680192 -0.25171029 137.67562319 -0.24008322 139.66430664 -0.22705078 C141.3342816 -0.22868508 141.3342816 -0.22868508 143.03799343 -0.2303524 C146.57691007 0.38609593 147.78638523 1.39697856 149.89564514 4.26742554 C149.89564514 7.94767457 149.87797406 10.27668004 147.21981049 12.95761871 C144.22029492 14.64802597 142.14736016 14.65022856 138.70899963 14.66183472 C137.43874435 14.67318451 136.16848907 14.6845343 134.85974121 14.69622803 C133.45439085 14.69358478 132.04904107 14.69061356 130.64369202 14.68734741 C129.16191975 14.69468769 127.68015321 14.70327381 126.19839478 14.7130127 C122.17571349 14.73523946 118.15323696 14.7381589 114.1305027 14.73626518 C110.77298202 14.73614556 107.41550486 14.74470617 104.05799627 14.7530427 C96.13845261 14.77228014 88.21901436 14.77515901 80.29945374 14.7684021 C72.1263494 14.76175734 63.95369592 14.7846421 55.78068304 14.82171583 C48.76486019 14.85238695 41.74918259 14.8637758 34.73329401 14.85987902 C30.5423541 14.85780919 26.35176517 14.86332661 22.16088867 14.88777161 C18.2208553 14.90999445 14.28155669 14.90819903 10.34152031 14.88784409 C8.89511485 14.88442627 7.44866034 14.88955643 6.00232124 14.90382767 C4.02905469 14.92195579 2.05556364 14.90629777 0.08229065 14.8888855 C-1.57467457 14.88995426 -1.57467457 14.88995426 -3.26511383 14.89104462 C-6.10435486 14.26742554 -6.10435486 14.26742554 -8.49492645 11.95905304 C-10.10435486 9.26742554 -10.10435486 9.26742554 -10.04185486 5.57992554 C-8.4306438 -0.11302019 -5.29923787 0.01595899 0 0 Z " fill="#030303" transform="translate(238.10435485839844,173.73257446289063)"/>
<path d="M0 0 C1.26881012 -0.01272446 2.53762024 -0.02544891 3.84487915 -0.03855896 C5.24864383 -0.03237667 6.6524067 -0.02577064 8.0561676 -0.01878357 C9.53631959 -0.02584181 11.01646435 -0.03458643 12.49659729 -0.04489136 C16.51528114 -0.06740678 20.53357156 -0.06444065 24.55229449 -0.05556989 C27.90724428 -0.05046205 31.26211999 -0.05775093 34.61706215 -0.06504196 C42.53188833 -0.08204798 50.44652174 -0.07846833 58.36134338 -0.06175232 C66.52649219 -0.04483059 74.69110641 -0.06066436 82.85619682 -0.0929752 C89.86695355 -0.11966701 96.87754382 -0.12694823 103.88834625 -0.11846012 C108.07538818 -0.1135296 112.26210844 -0.11575294 116.44911003 -0.13624763 C120.38671044 -0.15459854 124.32354174 -0.14865423 128.26110077 -0.12404823 C129.70546395 -0.1190383 131.14988567 -0.12253503 132.59420204 -0.13519669 C134.56714484 -0.1511231 136.5402742 -0.13315777 138.51318359 -0.11352539 C139.61690528 -0.11293908 140.72062696 -0.11235277 141.85779476 -0.1117487 C145.80775271 0.72351847 147.34449777 2.39222902 149.82008362 5.5146637 C149.82008362 8.70169687 149.49695878 10.56608247 147.6391058 13.16970062 C144.99594588 15.12402121 142.9816 14.89813113 139.71572876 14.90907288 C137.79978661 14.92609756 137.79978661 14.92609756 135.84513855 14.94346619 C134.42671141 14.94082276 133.00828485 14.93785151 131.58985901 14.93458557 C130.09838219 14.94192368 128.60691106 14.95050916 127.115448 14.96025085 C123.06171722 14.98250282 119.00818949 14.98539572 114.95440602 14.98350334 C111.57208234 14.98338381 108.18980195 14.99194079 104.80749029 15.00028086 C96.82899279 15.01952814 88.85059993 15.02239392 80.87208557 15.01564026 C72.63708729 15.00899785 64.40253675 15.03186856 56.1676293 15.06895399 C49.10087181 15.09962575 42.03425853 15.11101379 34.96743578 15.10711718 C30.74518287 15.10504706 26.52327832 15.11056885 22.30108833 15.13500977 C18.33070138 15.15723309 14.36104356 15.15543673 10.39065361 15.13508224 C8.93296114 15.13166429 7.47522001 15.13679519 6.01759338 15.15106583 C4.02894601 15.16919288 2.04007588 15.15353649 0.05142212 15.13612366 C-1.06189452 15.13683617 -2.17521116 15.13754868 -3.32226467 15.13828278 C-6.17991638 14.5146637 -6.17991638 14.5146637 -8.53812504 12.1359787 C-10.38858292 9.18150278 -10.8786348 7.920916 -10.17991638 4.5146637 C-7.08537939 0.52624658 -4.96014372 0.01261866 0 0 Z " fill="#020202" transform="translate(238.17991638183594,209.48533630371094)"/>
<path d="M0 0 C86.46 0 172.92 0 262 0 C262 9.9 262 19.8 262 30 C175.54 30 89.08 30 0 30 C0 20.1 0 10.2 0 0 Z M2 2 C2 10.58 2 19.16 2 28 C87.14 28 172.28 28 260 28 C260 19.75 260 11.5 260 3 C257.6746313 1.83731565 256.34490494 1.87568675 253.75585747 1.87695217 C252.41226042 1.8739656 252.41226042 1.8739656 251.04152 1.87091869 C250.05126292 1.87383153 249.06100584 1.87674437 248.04074097 1.87974548 C246.47009359 1.87846385 246.47009359 1.87846385 244.86771595 1.87715632 C241.33610999 1.87550062 237.80455085 1.88102437 234.27294922 1.88647461 C231.75051881 1.88675649 229.22808832 1.88659873 226.70565796 1.8860321 C221.26322706 1.8858039 215.8208114 1.8886523 210.37838364 1.89426994 C202.50948794 1.9023869 194.64059804 1.90500036 186.77169861 1.90625793 C174.00583616 1.90844815 161.23998008 1.9151074 148.47412109 1.92456055 C136.07112663 1.93373546 123.66813389 1.94081591 111.26513672 1.94506836 C110.5009913 1.94533108 109.73684588 1.94559381 108.94954453 1.94586449 C105.11616357 1.9471695 101.2827826 1.94843322 97.44940162 1.94967639 C65.63292958 1.96004805 33.81646613 1.97794018 2 2 Z " fill="#5782BA" transform="translate(119,333)"/>
<path d="M0 0 C0.33 0 0.66 0 1 0 C1.06946484 12.18695834 1.12279346 24.37386969 1.15543652 36.56098557 C1.17110236 42.21976456 1.19235759 47.87840825 1.22631836 53.53710938 C1.25887876 58.99654727 1.27684609 64.4558549 1.28463173 69.91538239 C1.29018119 71.99983013 1.30101773 74.08427063 1.31719017 76.16866302 C1.33892014 79.08493033 1.34196876 82.00065714 1.34057617 84.91699219 C1.35675491 86.21387466 1.35675491 86.21387466 1.3732605 87.53695679 C1.34279011 93.421425 1.34279011 93.421425 -0.52128601 96.56768799 C-1.00926163 97.04035095 -1.49723724 97.51301392 -2 98 C-2.99 97.67 -3.98 97.34 -5 97 C-4.34 97 -3.68 97 -3 97 C-2.67 95.35 -2.34 93.7 -2 92 C-1.67 92 -1.34 92 -1 92 C-0.67 61.64 -0.34 31.28 0 0 Z " fill="#474344" transform="translate(482,54)"/>
<path d="M0 0 C0.66 -0.33 1.32 -0.66 2 -1 C2 -0.34 2 0.32 2 1 C2.66 1 3.32 1 4 1 C3.25 2.9375 3.25 2.9375 2 5 C-0.125 5.75 -0.125 5.75 -2 6 C-3.65 4.02 -5.3 2.04 -7 0 C-4.33059475 -1.33470263 -2.86667247 -0.57333449 0 0 Z " fill="#E2E1E1" transform="translate(151,426)"/>
<path d="M0 0 C4.55555556 0.55555556 4.55555556 0.55555556 6 2 C8.05396726 1.59070014 8.05396726 1.59070014 10 1 C9.6875 3.375 9.6875 3.375 9 6 C8.01 6.66 7.02 7.32 6 8 C3.36 6.02 0.72 4.04 -2 2 C-1.34 1.34 -0.68 0.68 0 0 Z " fill="#ECE8E7" transform="translate(203,416)"/>
<path d="M0 0 C2.06132142 -0.10864945 4.12431321 -0.18588321 6.1875 -0.25 C7.33605469 -0.29640625 8.48460937 -0.3428125 9.66796875 -0.390625 C13.65553552 0.07685059 15.24673994 1.12345964 18 4 C18.3125 7.25 18.3125 7.25 18 10 C16.5 8.625 16.5 8.625 15 7 C15 6.34 15 5.68 15 5 C14.34 4.67 13.68 4.34 13 4 C12.67 3.34 12.34 2.68 12 2 C9.1840151 1.53101037 9.1840151 1.53101037 5.9375 1.375 C4.28041016 1.26285156 4.28041016 1.26285156 2.58984375 1.1484375 C1.73519531 1.09945312 0.88054687 1.05046875 0 1 C0 0.67 0 0.34 0 0 Z " fill="#CCC9CA" transform="translate(159,195)"/>
<path d="M0 0 C-2.38957269 3.24299151 -4.2047869 5.50902342 -8 7 C-8 4.35220307 -7.82804069 2.48412207 -7 0 C-4.3333581 -1.33332095 -2.83319697 -0.67102033 0 0 Z " fill="#E8E5E5" transform="translate(314,410)"/>
<path d="M0 0 C1.67542976 0.28604898 3.34385343 0.61781233 5 1 C0.375 5.875 0.375 5.875 -3 7 C-3.99 6.01 -4.98 5.02 -6 4 C-2.25 2.875 -2.25 2.875 0 4 C-0.33 3.01 -0.66 2.02 -1 1 C-0.67 0.67 -0.34 0.34 0 0 Z " fill="#DAD8D8" transform="translate(356,425)"/>
<path d="M0 0 C5.41538462 -0.36923077 5.41538462 -0.36923077 8.375 1.5 C8.91125 1.995 9.4475 2.49 10 3 C7 5 7 5 5 4.75 C3 4 3 4 0 2 C0 1.34 0 0.68 0 0 Z " fill="#E0DFDF" transform="translate(215,427)"/>
<path d="M0 0 C0.66 0.33 1.32 0.66 2 1 C2 1.66 2 2.32 2 3 C2.66 3.33 3.32 3.66 4 4 C1.69 5.65 -0.62 7.3 -3 9 C-2.25 2.25 -2.25 2.25 0 0 Z " fill="#E3E0E1" transform="translate(93,419)"/>
<path d="M0 0 C2 1 2 1 2 1 Z M-1 1 C-0.01 1.66 0.98 2.32 2 3 C2 3.99 2 4.98 2 6 C-1 7 -1 7 -4 6 C-4 4.68 -4 3.36 -4 2 C-3.01 1.67 -2.02 1.34 -1 1 Z " fill="#0C0C0B" transform="translate(109,320)"/>
<path d="M0 0 C0.66 1.32 1.32 2.64 2 4 C1.34 4 0.68 4 0 4 C-0.84454356 7.37817425 -1.10844919 9.67465243 0 13 C-0.99 12.67 -1.98 12.34 -3 12 C-3 11.34 -3 10.68 -3 10 C-3.66 9.67 -4.32 9.34 -5 9 C-4.360625 8.071875 -3.72125 7.14375 -3.0625 6.1875 C-0.91377907 3.15780057 -0.91377907 3.15780057 0 0 Z " fill="#E3DEDE" transform="translate(190,209)"/>
<path d="M0 0 C0.99 0.33 1.98 0.66 3 1 C2.67 2.32 2.34 3.64 2 5 C2.66 5.33 3.32 5.66 4 6 C0.30581799 6 -1.77836178 4.71820705 -5 3 C-2 1 -2 1 0 0 Z " fill="#E3E0DF" transform="translate(181,179)"/>
<path d="M0 0 C3.875 1.875 3.875 1.875 5 3 C5.07226502 4.85287502 5.0838122 6.70833878 5.0625 8.5625 C5.05347656 9.57441406 5.04445312 10.58632812 5.03515625 11.62890625 C5.02355469 12.41136719 5.01195312 13.19382813 5 14 C4.67 14 4.34 14 4 14 C3.67 11.03 3.34 8.06 3 5 C2.01 5.495 2.01 5.495 1 6 C0.67 4.02 0.34 2.04 0 0 Z " fill="#1C1C1B" transform="translate(172,138)"/>
<path d="M0 0 C0.66 0 1.32 0 2 0 C0.54744301 3.82946843 -1.42895561 5.12050295 -5 7 C-5.33 5.68 -5.66 4.36 -6 3 C-5.34 2.67 -4.68 2.34 -4 2 C-3.34 2.33 -2.68 2.66 -2 3 C-1.67 2.34 -1.34 1.68 -1 1 C-0.67 0.67 -0.34 0.34 0 0 Z " fill="#E1DEDD" transform="translate(367,418)"/>
<path d="M0 0 C1.32 0 2.64 0 4 0 C3.67 4.62 3.34 9.24 3 14 C2.67 14 2.34 14 2 14 C1.93941406 13.32453125 1.87882813 12.6490625 1.81640625 11.953125 C1.73261719 11.06109375 1.64882812 10.1690625 1.5625 9.25 C1.48128906 8.36828125 1.40007812 7.4865625 1.31640625 6.578125 C1.03761535 4.30649548 0.61209423 2.20148177 0 0 Z " fill="#C5C2C3" transform="translate(160,138)"/>
<path d="M0 0 C0.33 0 0.66 0 1 0 C1.36923077 6.4 1.36923077 6.4 -0.5 9.4375 C-0.995 9.953125 -1.49 10.46875 -2 11 C-2.99 10.67 -3.98 10.34 -5 10 C-4.34 10 -3.68 10 -3 10 C-2.67 8.35 -2.34 6.7 -2 5 C-1.67 5 -1.34 5 -1 5 C-0.67 3.35 -0.34 1.7 0 0 Z " fill="#717171" transform="translate(482,141)"/>
<path d="M0 0 C2.475 0.495 2.475 0.495 5 1 C4.625 3.4375 4.625 3.4375 4 6 C3.01 6.495 3.01 6.495 2 7 C0 2.25 0 2.25 0 0 Z " fill="#E2DEDF" transform="translate(369,411)"/>
<path d="M0 0 C0.99 0.33 1.98 0.66 3 1 C2.34 2.32 1.68 3.64 1 5 C-0.32 5 -1.64 5 -3 5 C-2 2 -2 2 0 0 Z " fill="#E2E0DF" transform="translate(378,407)"/>
<path d="M0 0 C0.66 0.33 1.32 0.66 2 1 C-0.64 3.97 -3.28 6.94 -6 10 C-6.33 9.34 -6.66 8.68 -7 8 C-4.69 5.36 -2.38 2.72 0 0 Z " fill="#222021" transform="translate(150,155)"/>
<path d="M0 0 C1.32 0.66 2.64 1.32 4 2 C2.71034824 3.37562854 1.37310707 4.70766393 0 6 C-0.66 6 -1.32 6 -2 6 C-1.49396008 3.83125748 -1.00016187 2.00032373 0 0 Z " fill="#525151" transform="translate(114,423)"/>
<path d="M0 0 C1.32 0.66 2.64 1.32 4 2 C2.35 3.32 0.7 4.64 -1 6 C-1.625 4.125 -1.625 4.125 -2 2 C-1.34 1.34 -0.68 0.68 0 0 Z " fill="#E3E1E0" transform="translate(298,419)"/>
<path d="M0 0 C0.99 0 1.98 0 3 0 C2.75 2.375 2.75 2.375 2 5 C-0.0625 6.3125 -0.0625 6.3125 -2 7 C-1.34 4.69 -0.68 2.38 0 0 Z " fill="#E7E4E3" transform="translate(232,417)"/>
<path d="M0 0 C2.625 0.9375 2.625 0.9375 5 2 C4.01 3.485 4.01 3.485 3 5 C-0.875 3.25 -0.875 3.25 -2 1 C-1.34 0.67 -0.68 0.34 0 0 Z " fill="#DEDADA" transform="translate(386,173)"/>
<path d="M0 0 C1.2065625 0.0309375 1.2065625 0.0309375 2.4375 0.0625 C0.81410195 1.77134005 -0.85569053 3.43696717 -2.5625 5.0625 C-3.2225 5.0625 -3.8825 5.0625 -4.5625 5.0625 C-3.43829114 0.08386076 -3.43829114 0.08386076 0 0 Z " fill="#434343" transform="translate(247.5625,427.9375)"/>
<path d="M0 0 C2.625 0.375 2.625 0.375 5 1 C4.67 2.65 4.34 4.3 4 6 C2.02 4.68 0.04 3.36 -2 2 C-1.34 1.34 -0.68 0.68 0 0 Z " fill="#DBD9DA" transform="translate(203,416)"/>
<path d="M0 0 C0.66 0.33 1.32 0.66 2 1 C1.67 2.65 1.34 4.3 1 6 C0.01 6 -0.98 6 -2 6 C-1.67 5.01 -1.34 4.02 -1 3 C-1.66 2.67 -2.32 2.34 -3 2 C-2.01 2 -1.02 2 0 2 C0 1.34 0 0.68 0 0 Z " fill="#E6E1E1" transform="translate(316,403)"/>
<path d="M0 0 C0.66 0.33 1.32 0.66 2 1 C1.360625 1.556875 0.72125 2.11375 0.0625 2.6875 C-2.19680987 5.22066561 -2.63149047 6.68341424 -3 10 C-3.33 10 -3.66 10 -4 10 C-4.25 7.25 -4.25 7.25 -4 4 C-2 1.625 -2 1.625 0 0 Z " fill="#2C2A29" transform="translate(145,210)"/>
<path d="M0 0 C0.66 0.33 1.32 0.66 2 1 C2.25 7.625 2.25 7.625 0 11 C-0.66 11 -1.32 11 -2 11 C-1.67 9.68 -1.34 8.36 -1 7 C-0.34 7 0.32 7 1 7 C0.67 4.69 0.34 2.38 0 0 Z " fill="#091622" transform="translate(451,96)"/>
</svg>
